<?xml version="1.0" encoding="UTF-8"?>
<svg version="1.1" xmlns="http://www.w3.org/2000/svg" width="768" height="768">
<path d="M0 0 C34.63558136 24.67059566 54.29294483 62.42927426 61.359375 103.83984375 C61.57767797 105.22582093 61.79178455 106.61247153 62 108 C62.22429687 109.48693359 62.22429687 109.48693359 62.453125 111.00390625 C62.76359126 113.67963519 62.9133745 116.30739063 63 119 C63.02578125 119.63067383 63.0515625 120.26134766 63.078125 120.91113281 C65.06166245 174.93773406 42.65861739 228.0756311 7 268 C6.54238281 268.51401367 6.08476562 269.02802734 5.61328125 269.55761719 C-3.91368377 280.21207317 -13.76590363 290.1300683 -25 299 C-26.66711649 300.33277086 -28.33391714 301.66593724 -30 303 C-24.64347358 301.54488817 -19.28950833 300.0840455 -13.94921875 298.5703125 C-2.85445781 295.48843446 8.26986733 293.08459937 19.625 291.1875 C20.85645752 290.9807666 22.08791504 290.7740332 23.35668945 290.56103516 C66.27274013 283.67802656 112.24976525 290.46770391 148.19921875 315.921875 C177.02965817 336.9037861 201.20509099 366.90543961 207.27734375 402.95507812 C212.78356651 443.69368573 200.86558233 485.80006987 176.19189453 518.43798828 C171.17892775 525.00762397 165.95122731 531.28580456 160.37109375 537.3828125 C158.47377131 539.47705637 156.62446543 541.59709745 154.78125 543.73828125 C150.73304213 548.37442115 146.42421114 552.72287347 142.0625 557.0625 C140.92264648 558.2081543 140.92264648 558.2081543 139.75976562 559.37695312 C135.00405908 564.1245372 130.12011288 568.64869771 125 573 C124.03835938 573.81984375 123.07671875 574.6396875 122.0859375 575.484375 C113.9570492 582.27797041 105.64967768 588.82528651 97.28955078 595.33105469 C88.03067379 602.5404198 78.94533689 609.94190584 69.90673828 617.42529297 C67.36440925 619.52491169 64.80755092 621.60646512 62.25 623.6875 C57.73076776 627.37820633 53.27587769 631.1402198 48.83056641 634.91918945 C45.46091929 637.77905411 42.05942144 640.5928129 38.625 643.375 C32.91768776 648.02202782 27.37166327 652.84440545 21.82421875 657.6796875 C19.38249287 659.80609321 16.92877895 661.91638677 14.45703125 664.0078125 C6.92808339 670.38245595 -0.3436795 676.97689992 -7.5234375 683.7421875 C-10.43245635 686.48036674 -13.38843578 689.15880362 -16.375 691.8125 C-20.27069987 695.28896064 -23.96776754 698.91536493 -27.6015625 702.6640625 C-29.5780593 704.5890545 -31.58606655 706.38619421 -33.67578125 708.18359375 C-38.51947754 712.38942775 -43.03902975 716.89236908 -47.5625 721.4375 C-48.77969727 722.64889648 -48.77969727 722.64889648 -50.02148438 723.88476562 C-54.33714044 728.20738804 -58.47811383 732.61178043 -62.46069336 737.24243164 C-64.53312942 739.60872303 -66.7469895 741.80627925 -69 744 C-72.57911262 747.54126701 -75.98655615 751.15033045 -79.26171875 754.97265625 C-81.2921605 757.34074449 -83.36263267 759.67077065 -85.4375 762 C-86.11683594 762.763125 -86.79617188 763.52625 -87.49609375 764.3125 C-87.99238281 764.869375 -88.48867188 765.42625 -89 766 C-96.71986715 761.45186121 -103.0277151 755.6492028 -109.45263672 749.47998047 C-110.8206995 748.17149253 -112.20782005 746.88299349 -113.59765625 745.59765625 C-143.07659086 717.55671845 -160.43414192 676.57429896 -161.97412109 636.14794922 C-162.76879326 596.61118645 -151.56517359 557.57850602 -126 527 C-125.54399414 526.44393066 -125.08798828 525.88786133 -124.61816406 525.31494141 C-116.95519447 515.98210713 -108.6491658 507.41886256 -100 499 C-100.56267578 499.12624756 -101.12535156 499.25249512 -101.70507812 499.38256836 C-106.62886882 500.48277306 -111.55647344 501.55372482 -116.5 502.5625 C-117.7065625 502.81128906 -118.913125 503.06007813 -120.15625 503.31640625 C-158.29402173 510.09903842 -197.57417583 501.97593932 -229.96191406 480.71191406 C-263.37231902 457.14840388 -286.74318528 421.9302432 -294.52294922 381.77685547 C-303.10909709 331.79791696 -285.67143547 281.02868459 -257.0625 240.125 C-245.03871625 223.41296397 -230.84578652 207.87281126 -214.640625 195.13671875 C-211.64351616 192.7115434 -208.81822685 190.12740471 -206 187.5 C-201.44940638 183.26997334 -196.75698629 179.27916428 -191.91796875 175.3828125 C-188.54026458 172.62458018 -185.23782111 169.78739407 -181.9375 166.9375 C-177.22265697 162.8719078 -172.44487506 158.91787341 -167.55859375 155.05859375 C-164.4927588 152.5918838 -161.49550413 150.05127586 -158.5 147.5 C-153.93079634 143.6091876 -149.29827185 139.82070887 -144.59375 136.09375 C-140.94518588 133.14852354 -137.38370671 130.10435614 -133.81420898 127.06420898 C-130.60661212 124.33914175 -127.36593233 121.67161486 -124.0625 119.0625 C-119.35069542 115.3297717 -114.80067267 111.42606083 -110.2512207 107.49902344 C-106.62923903 104.37827395 -102.96730739 101.31999622 -99.25 98.3125 C-94.87704782 94.76427126 -90.69763557 91.04942929 -86.5390625 87.25390625 C-83.88104535 84.89440487 -81.14607706 82.66275885 -78.375 80.4375 C-74.37571705 77.20319944 -70.68398411 73.84729004 -67.14453125 70.1171875 C-65.35957317 68.35498845 -63.54866373 66.75171616 -61.640625 65.12890625 C-55.75912152 60.02105244 -50.31412149 54.46317427 -44.81811523 48.94848633 C-42.94170525 47.06671726 -41.06001031 45.19035262 -39.17773438 43.31445312 C-33.75570449 37.89543089 -28.37340219 32.49202956 -23.40356445 26.64868164 C-21.22276752 24.08703236 -18.91794187 21.64914179 -16.625 19.1875 C-12.13654838 14.3376933 -7.91100255 9.33741728 -3.77734375 4.1796875 C-2 2 -2 2 0 0 Z " fill="#E94715" transform="translate(428,1)"/>
<path d="M0 0 C34.7783793 -1.6561133 69.02775542 17.3935933 94.375 39.5625 C117.36657277 61.01359889 135.55195982 91.1631876 137.15966797 123.1796875 C138.78322612 171.14538893 121.53529165 212.23932217 89.37109375 247.3828125 C87.47377131 249.47705637 85.62446543 251.59709745 83.78125 253.73828125 C79.73304213 258.37442115 75.42421114 262.72287347 71.0625 267.0625 C70.30259766 267.82626953 69.54269531 268.59003906 68.75976562 269.37695312 C64.00405908 274.1245372 59.12011288 278.64869771 54 283 C53.03835938 283.81984375 52.07671875 284.6396875 51.0859375 285.484375 C42.9570492 292.27797041 34.64967768 298.82528651 26.28955078 305.33105469 C17.03067379 312.5404198 7.94533689 319.94190584 -1.09326172 327.42529297 C-3.63559075 329.52491169 -6.19244908 331.60646512 -8.75 333.6875 C-13.26923224 337.37820633 -17.72412231 341.1402198 -22.16943359 344.91918945 C-25.53908071 347.77905411 -28.94057856 350.5928129 -32.375 353.375 C-38.08231224 358.02202782 -43.62833673 362.84440545 -49.17578125 367.6796875 C-51.61750713 369.80609321 -54.07122105 371.91638677 -56.54296875 374.0078125 C-64.07191661 380.38245595 -71.3436795 386.97689992 -78.5234375 393.7421875 C-81.43245635 396.48036674 -84.38843578 399.15880362 -87.375 401.8125 C-91.27069987 405.28896064 -94.96776754 408.91536493 -98.6015625 412.6640625 C-100.5780593 414.5890545 -102.58606655 416.38619421 -104.67578125 418.18359375 C-109.51947754 422.38942775 -114.03902975 426.89236908 -118.5625 431.4375 C-119.37396484 432.24509766 -120.18542969 433.05269531 -121.02148438 433.88476562 C-125.33714044 438.20738804 -129.47811383 442.61178043 -133.46069336 447.24243164 C-135.53312942 449.60872303 -137.7469895 451.80627925 -140 454 C-143.57911262 457.54126701 -146.98655615 461.15033045 -150.26171875 464.97265625 C-152.2921605 467.34074449 -154.36263267 469.67077065 -156.4375 472 C-157.11683594 472.763125 -157.79617188 473.52625 -158.49609375 474.3125 C-159.24052734 475.1478125 -159.24052734 475.1478125 -160 476 C-167.71986715 471.45186121 -174.0277151 465.6492028 -180.45263672 459.47998047 C-181.8206995 458.17149253 -183.20782005 456.88299349 -184.59765625 455.59765625 C-214.07659086 427.55671845 -231.43414192 386.57429896 -232.97412109 346.14794922 C-233.7689089 306.60543272 -222.55679388 267.58513317 -197 237 C-196.54931152 236.44924805 -196.09862305 235.89849609 -195.63427734 235.33105469 C-189.10220309 227.35624404 -182.14756534 219.95179872 -174.72387695 212.79736328 C-174.10859131 212.19907715 -173.49330566 211.60079102 -172.859375 210.984375 C-172.03131348 210.19111816 -172.03131348 210.19111816 -171.18652344 209.38183594 C-169.78284885 208.0506618 -169.78284885 208.0506618 -170 206 C-169.34 205.814375 -168.68 205.62875 -168 205.4375 C-162.75942557 202.92639142 -158.74557392 198.77220132 -154.6953125 194.66015625 C-151.5376769 191.5437072 -148.23590937 188.64359192 -144.875 185.75 C-144.21048828 185.17644775 -143.54597656 184.60289551 -142.86132812 184.01196289 C-137.31861574 179.24360003 -131.69886503 174.58083157 -126 170 C-125.43313477 169.54270508 -124.86626953 169.08541016 -124.28222656 168.61425781 C-116.24810681 162.13485342 -108.15380808 155.74197253 -99.9453125 149.484375 C-97.69023594 147.76363385 -95.43898526 146.0379373 -93.1875 144.3125 C-83.91673868 137.21790058 -74.59807037 130.20007072 -65.1809082 123.30102539 C-57.29366572 117.50958996 -49.52246321 111.56907615 -41.75 105.625 C-38.03873087 102.7876561 -34.30931519 99.97768152 -30.5625 97.1875 C-19.02550751 88.54702903 -7.73656841 79.62363144 3 70 C3.54462891 69.51418457 4.08925781 69.02836914 4.65039062 68.52783203 C14.96792387 59.19277248 23.69891205 48.13457373 25.37109375 33.82421875 C25.56132047 24.83880349 24.04625019 18.60575172 18.05078125 11.78125 C12.71557054 6.64718727 6.85849098 3.66647873 0 1 C0 0.67 0 0.34 0 0 Z " fill="#EC3846" transform="translate(499,291)"/>
<path d="M0 0 C0.66 0 1.32 0 2 0 C2.50789063 1.05058594 3.01578125 2.10117187 3.5390625 3.18359375 C6.95247685 10.16932135 10.3088521 16.97331258 14.87109375 23.30078125 C16 25 16 25 17 28 C17.66 28 18.32 28 19 28 C20.65625 29.71484375 20.65625 29.71484375 22.5 31.9375 C24.88926999 34.92045179 24.88926999 34.92045179 28 37 C28 37.66 28 38.32 28 39 C28.66 39 29.32 39 30 39 C30 39.66 30 40.32 30 41 C30.71929687 41.25265625 31.43859375 41.5053125 32.1796875 41.765625 C35.2246163 43.09830852 37.49461378 44.72421001 40.125 46.75 C45.49856765 50.74220639 51.0391852 53.97386808 57 57 C57.89960449 57.46515015 57.89960449 57.46515015 58.81738281 57.93969727 C91.59464737 74.686002 129.68444049 80.86578482 166 75 C167.72476563 74.74283203 167.72476563 74.74283203 169.484375 74.48046875 C188.69985361 71.17113632 206.96886692 63.98488558 223.85546875 54.375 C243.08632777 43.46709769 265.01487948 38.80692739 286.625 35.1875 C287.85686035 34.9805249 289.0887207 34.7735498 290.35791016 34.56030273 C306.46198284 31.97987009 321.7811292 31.69127267 338 33 C338 33.66 338 34.32 338 35 C338.72574219 35.1134375 339.45148438 35.226875 340.19921875 35.34375 C349.07496659 37.42342313 355.73350695 43.86434395 361 51 C365.25150152 57.90868998 365.10066368 66.1387354 363.34375 73.8984375 C357.10951675 92.65488064 341.21744826 106.26082563 326 118 C324.44061589 119.23951045 322.88123943 120.47903054 321.32202148 121.71875 C307.49673775 132.66600387 293.4051236 143.2779305 279.18066406 153.69921875 C271.28816337 159.49429644 263.51206051 165.43894879 255.734375 171.38671875 C252.11100212 174.15682284 248.47091287 176.90140257 244.8125 179.625 C230.70893296 190.17236675 216.93160523 201.11097105 203.5 212.5 C199.32666611 216.03804597 195.14845923 219.56925419 190.9375 223.0625 C189.65166016 224.13177734 189.65166016 224.13177734 188.33984375 225.22265625 C186 227 186 227 183.75390625 228.05859375 C181.64053239 228.93451628 181.64053239 228.93451628 181 232 C179.328125 233.7890625 179.328125 233.7890625 177.25 235.625 C176.23679687 236.54152344 176.23679687 236.54152344 175.203125 237.4765625 C172.76739505 239.16084385 170.91239188 239.62322203 168 240 C168 240.66 168 241.32 168 242 C128.69746785 254.81887224 87.73653271 250.97581519 51.05371094 232.59033203 C16.92830115 215.08617731 -10.3056019 182.80140087 -22.27832031 146.32177734 C-37.21104151 98.28044494 -27.34745473 52.41214648 -4.73828125 8.52734375 C-3.21573428 5.6517521 -1.63789827 2.81181854 0 0 Z " fill="#FE9000" transform="translate(161,257)"/>
<path d="M0 0 C34.7783793 -1.6561133 69.02775542 17.3935933 94.375 39.5625 C117.36657277 61.01359889 135.55195982 91.1631876 137.15966797 123.1796875 C138.37806416 159.17545871 129.52955777 193.89612389 108.875 223.75 C108.47958008 224.33467041 108.08416016 224.91934082 107.67675781 225.52172852 C104.93916365 229.33528971 102.32177853 231.22118101 98 233 C96.74335022 230.09399739 96 228.20395416 96 225 C95.34 224.34 94.68 223.68 94 223 C93.566875 223.825 93.13375 224.65 92.6875 225.5 C91.8521875 226.7375 91.8521875 226.7375 91 228 C84 228 84 228 81 227 C78.83284443 227.87483915 78.83284443 227.87483915 77 229 C76.67 228.01 76.34 227.02 76 226 C75.34 226 74.68 226 74 226 C73.34 225.01 72.68 224.02 72 223 C70.68 224.32 69.36 225.64 68 227 C67.01 226.67 66.02 226.34 65 226 C65 223.36 65 220.72 65 218 C63.68 217.67 62.36 217.34 61 217 C60.40929986 218.94603274 60.40929986 218.94603274 60 221 C60.33 221.33 60.66 221.66 61 222 C60.34 223.32 59.68 224.64 59 226 C58.01 226 57.02 226 56 226 C56 224.35 56 222.7 56 221 C55.8453125 221.8971875 55.8453125 221.8971875 55.6875 222.8125 C54.91123545 225.28243264 53.92911079 226.32251235 52 228 C51.01 227.01 50.02 226.02 49 225 C47.02 225.99 47.02 225.99 45 227 C43 224 43 224 42 221 C41.54625 221.639375 41.0925 222.27875 40.625 222.9375 C39 225 39 225 37 226 C36.34 224.02 35.68 222.04 35 220 C34.67 220.99 34.34 221.98 34 223 C33.01 222.67 32.02 222.34 31 222 C30.67 222.99 30.34 223.98 30 225 C29.34 225 28.68 225 28 225 C27.67 225.66 27.34 226.32 27 227 C26.67 225.68 26.34 224.36 26 223 C22.51460083 223.64544429 19.97180943 225.10134397 17 227 C16.34 226.34 15.68 225.68 15 225 C15 223.68 15 222.36 15 221 C14.01 221.33 13.02 221.66 12 222 C11.01 222 10.02 222 9 222 C8.67 221.34 8.34 220.68 8 220 C7.34 220.66 6.68 221.32 6 222 C5.01 221.34 4.02 220.68 3 220 C-0.1628485 220.80404463 -0.1628485 220.80404463 -3 222 C-3.33 221.01 -3.66 220.02 -4 219 C-4.33 218.67 -4.66 218.34 -5 218 C-5.99 220.97 -5.99 220.97 -7 224 C-8.74271938 221.702779 -10.39911152 219.40133271 -12 217 C-12.66 217.66 -13.32 218.32 -14 219 C-14.33 218.34 -14.66 217.68 -15 217 C-15.99 217 -16.98 217 -18 217 C-18.66 217.66 -19.32 218.32 -20 219 C-20.33 219.33 -20.66 219.66 -21 220 C-21.99 220 -22.98 220 -24 220 C-25 219 -26 218 -27 217 C-29.9254644 216.7763932 -29.9254644 216.7763932 -32 218 C-32.66 218.66 -33.32 219.32 -34 220 C-36 218 -36 218 -36.125 215.375 C-36.08375 214.59125 -36.0425 213.8075 -36 213 C-36.66 214.65 -37.32 216.3 -38 218 C-38.66 217.34 -39.32 216.68 -40 216 C-42.05714832 216.01382865 -42.05714832 216.01382865 -44 217 C-44.309375 217.66 -44.61875 218.32 -44.9375 219 C-45.288125 219.66 -45.63875 220.32 -46 221 C-48.625 221.75 -48.625 221.75 -51 222 C-51 221.01 -51 220.02 -51 219 C-50.34 219 -49.68 219 -49 219 C-50.08784968 215.75016865 -50.08784968 215.75016865 -52 213 C-52.33 214.65 -52.66 216.3 -53 218 C-53.66 217.34 -54.32 216.68 -55 216 C-55.66 216.66 -56.32 217.32 -57 218 C-57.33 217.01 -57.66 216.02 -58 215 C-58.66 215.66 -59.32 216.32 -60 217 C-60.99 216.01 -61.98 215.02 -63 214 C-63.66 214.66 -64.32 215.32 -65 216 C-65.66 215.01 -66.32 214.02 -67 213 C-67.0825 213.78375 -67.165 214.5675 -67.25 215.375 C-68 218 -68 218 -70.0625 219.3125 C-70.701875 219.539375 -71.34125 219.76625 -72 220 C-72 217.66666667 -72 215.33333333 -72 213 C-72.268125 213.639375 -72.53625 214.27875 -72.8125 214.9375 C-74 217 -74 217 -77 218 C-79.6875 217.5625 -79.6875 217.5625 -82 217 C-82 216.01 -82 215.02 -82 214 C-83.65 214.99 -85.3 215.98 -87 217 C-87 215.68 -87 214.36 -87 213 C-87.66 214.32 -88.32 215.64 -89 217 C-90.32 216.01 -91.64 215.02 -93 214 C-94.32 214.99 -95.64 215.98 -97 217 C-97.33 215.68 -97.66 214.36 -98 213 C-98.99 213 -99.98 213 -101 213 C-101.33 213 -101.66 213 -102 213 C-102.33 214.65 -102.66 216.3 -103 218 C-106 219 -106 219 -107.875 218.5 C-110.51280286 217.8793405 -112.3981146 218.34952865 -115 219 C-115 218.01 -115 217.02 -115 216 C-115.66 215.67 -116.32 215.34 -117 215 C-117.66 215.66 -118.32 216.32 -119 217 C-119.33 215.68 -119.66 214.36 -120 213 C-123.12498166 212.6626154 -123.12498166 212.6626154 -125.1875 215 C-125.785625 215.66 -126.38375 216.32 -127 217 C-128.65 215.68 -130.3 214.36 -132 213 C-133.32 213.99 -134.64 214.98 -136 216 C-136 215.34 -136 214.68 -136 214 C-136.66 214 -137.32 214 -138 214 C-138.66 213.01 -139.32 212.02 -140 211 C-142.475 212.98 -142.475 212.98 -145 215 C-145.33 214.01 -145.66 213.02 -146 212 C-145.67 211.67 -145.34 211.34 -145 211 C-145.66 210.67 -146.32 210.34 -147 210 C-147.66 210.66 -148.32 211.32 -149 212 C-149.99 211.01 -150.98 210.02 -152 209 C-152.66 209.66 -153.32 210.32 -154 211 C-154.33 210.34 -154.66 209.68 -155 209 C-157.2773501 211.81509993 -157.2773501 211.81509993 -157 215 C-157.99 215.33 -158.98 215.66 -160 216 C-160.66 215.01 -161.32 214.02 -162 213 C-162.66 213 -163.32 213 -164 213 C-164.33 213.66 -164.66 214.32 -165 215 C-165.66 214.01 -166.32 213.02 -167 212 C-167.66 211.67 -168.32 211.34 -169 211 C-169.45375 211.495 -169.9075 211.99 -170.375 212.5 C-172 214 -172 214 -174 214 C-174 214.66 -174 215.32 -174 216 C-175.5390625 217.55078125 -175.5390625 217.55078125 -177.625 219.3125 C-178.34945313 219.92867187 -179.07390625 220.54484375 -179.8203125 221.1796875 C-180.53960937 221.78039062 -181.25890625 222.38109375 -182 223 C-182.61617188 223.51820313 -183.23234375 224.03640625 -183.8671875 224.5703125 C-185.23975123 225.71958835 -186.6190983 226.8607561 -188 228 C-186.57781685 224.74297483 -184.85468034 222.64001026 -182.3046875 220.1796875 C-181.58925781 219.47972656 -180.87382812 218.77976562 -180.13671875 218.05859375 C-179.01716797 216.97771484 -179.01716797 216.97771484 -177.875 215.875 C-176.38872852 214.43954122 -174.90671122 212.99966007 -173.4296875 211.5546875 C-172.77210449 210.92030762 -172.11452148 210.28592773 -171.43701172 209.63232422 C-169.77974178 208.11226154 -169.77974178 208.11226154 -170 206 C-169.34 205.814375 -168.68 205.62875 -168 205.4375 C-162.75942557 202.92639142 -158.74557392 198.77220132 -154.6953125 194.66015625 C-151.5376769 191.5437072 -148.23590937 188.64359192 -144.875 185.75 C-144.21048828 185.17644775 -143.54597656 184.60289551 -142.86132812 184.01196289 C-137.31861574 179.24360003 -131.69886503 174.58083157 -126 170 C-125.43313477 169.54270508 -124.86626953 169.08541016 -124.28222656 168.61425781 C-116.24810681 162.13485342 -108.15380808 155.74197253 -99.9453125 149.484375 C-97.69023594 147.76363385 -95.43898526 146.0379373 -93.1875 144.3125 C-83.91673868 137.21790058 -74.59807037 130.20007072 -65.1809082 123.30102539 C-57.29366572 117.50958996 -49.52246321 111.56907615 -41.75 105.625 C-38.03873087 102.7876561 -34.30931519 99.97768152 -30.5625 97.1875 C-19.02550751 88.54702903 -7.73656841 79.62363144 3 70 C3.54462891 69.51418457 4.08925781 69.02836914 4.65039062 68.52783203 C14.96792387 59.19277248 23.69891205 48.13457373 25.37109375 33.82421875 C25.56132047 24.83880349 24.04625019 18.60575172 18.05078125 11.78125 C12.71557054 6.64718727 6.85849098 3.66647873 0 1 C0 0.67 0 0.34 0 0 Z M57 217 C58 221 58 221 58 221 Z M13 225 C13.66 225 14.32 225 15 225 C14.67 225.66 14.34 226.32 14 227 C13.67 226.34 13.34 225.68 13 225 Z " fill="#F14A3D" transform="translate(499,291)"/>
<path d="M0 0 C0 0.66 0 1.32 0 2 C0.72574219 2.1134375 1.45148438 2.226875 2.19921875 2.34375 C11.07496659 4.42342313 17.73350695 10.86434395 23 18 C27.25150152 24.90868998 27.10066368 33.1387354 25.34375 40.8984375 C19.10951675 59.65488064 3.21744826 73.26082563 -12 85 C-13.55938411 86.23951045 -15.11876057 87.47903054 -16.67797852 88.71875 C-30.50326225 99.66600387 -44.5948764 110.2779305 -58.81933594 120.69921875 C-66.71183663 126.49429644 -74.48793949 132.43894879 -82.265625 138.38671875 C-85.88899788 141.15682284 -89.52908713 143.90140257 -93.1875 146.625 C-107.29106704 157.17236675 -121.06839477 168.11097105 -134.5 179.5 C-138.67333389 183.03804597 -142.85154077 186.56925419 -147.0625 190.0625 C-147.91972656 190.77535156 -148.77695312 191.48820313 -149.66015625 192.22265625 C-152 194 -152 194 -154.24609375 195.05859375 C-156.35946761 195.93451628 -156.35946761 195.93451628 -157 199 C-158.671875 200.7890625 -158.671875 200.7890625 -160.75 202.625 C-161.76320313 203.54152344 -161.76320313 203.54152344 -162.796875 204.4765625 C-165.23260495 206.16084385 -167.08760812 206.62322203 -170 207 C-170 207.66 -170 208.32 -170 209 C-178.05861682 211.62838992 -186.00472769 213.4894824 -194.375 214.75 C-195.62168457 214.94106323 -195.62168457 214.94106323 -196.89355469 215.13598633 C-209.98838543 217.00387152 -209.98838543 217.00387152 -216 215 C-216.48287851 212.35479758 -216.96136624 209.7089179 -217.4375 207.0625 C-217.57220703 206.32708984 -217.70691406 205.59167969 -217.84570312 204.83398438 C-225.37093797 162.80279463 -213.22199887 120.30861698 -189.26782227 85.42578125 C-185.18528487 79.627053 -180.77363419 74.2583478 -175.91015625 69.0859375 C-173.95975762 67.03942561 -173.95975762 67.03942561 -172.37109375 64.7265625 C-171.91863281 64.15679687 -171.46617187 63.58703125 -171 63 C-170.34 63 -169.68 63 -169 63 C-169 62.34 -169 61.68 -169 61 C-167.5390625 59.4921875 -167.5390625 59.4921875 -165.625 57.875 C-164.99851562 57.33617187 -164.37203125 56.79734375 -163.7265625 56.2421875 C-162 55 -162 55 -160 55 C-160 54.34 -160 53.68 -160 53 C-158.35 52.34 -156.7 51.68 -155 51 C-155 50.34 -155 49.68 -155 49 C-149.58823529 45 -149.58823529 45 -147 45 C-147 44.34 -147 43.68 -147 43 C-145.41113281 41.703125 -145.41113281 41.703125 -143.203125 40.25 C-142.4090625 39.7240625 -141.615 39.198125 -140.796875 38.65625 C-139.95640625 38.1096875 -139.1159375 37.563125 -138.25 37 C-137.0125 36.18015625 -137.0125 36.18015625 -135.75 35.34375 C-129.5293284 31.25014676 -129.5293284 31.25014676 -126.91699219 30.015625 C-124.85308166 28.92216247 -123.61514928 27.66988639 -122 26 C-120.89204223 25.23235534 -119.75731105 24.50220318 -118.6015625 23.80859375 C-117.63476562 23.22754883 -117.63476562 23.22754883 -116.6484375 22.63476562 C-115.98070312 22.23966797 -115.31296875 21.84457031 -114.625 21.4375 C-113.965 21.03853516 -113.305 20.63957031 -112.625 20.22851562 C-81.25484654 1.51265714 -35.7188235 -2.88221054 0 0 Z " fill="#FEC300" transform="translate(499,290)"/>
<path d="M0 0 C0.66 1.32 1.32 2.64 2 4 C3.32 3.01 4.64 2.02 6 1 C6.33 1.99 6.66 2.98 7 4 C7.99 3.67 8.98 3.34 10 3 C10.66 3.66 11.32 4.32 12 5 C12.99 5 13.98 5 15 5 C15 5.66 15 6.32 15 7 C15.61875 6.814375 16.2375 6.62875 16.875 6.4375 C19 6 19 6 21 7 C21.66 6.67 22.32 6.34 23 6 C23.66 6.66 24.32 7.32 25 8 C27.34058637 5.87219421 28.70700306 3.88437779 30 1 C30.763125 1.825 31.52625 2.65 32.3125 3.5 C34.75434142 6.34055197 34.75434142 6.34055197 38 6 C38.66 6 39.32 6 40 6 C40.495 6.99 40.495 6.99 41 8 C41.66 6.68 42.32 5.36 43 4 C43.66 4.33 44.32 4.66 45 5 C45.52573253 6.6823441 46 8.22677434 46 10 C49.05270463 10.15811388 49.05270463 10.15811388 52 9 C52.66 8.34 53.32 7.68 54 7 C54.99 6.34 55.98 5.68 57 5 C57.99 5.495 57.99 5.495 59 6 C59.66 5.34 60.32 4.68 61 4 C61 5.65 61 7.3 61 9 C62.98 7.35 64.96 5.7 67 4 C67.99 6.97 67.99 6.97 69 10 C71.15811388 9.05270463 71.15811388 9.05270463 73 7 C73.99 7.495 73.99 7.495 75 8 C75.66 7.34 76.32 6.68 77 6 C77.99 6.495 77.99 6.495 79 7 C79.66 6.01 80.32 5.02 81 4 C81.99 4.99 81.99 4.99 83 6 C83.66 6 84.32 6 85 6 C85.66 5.34 86.32 4.68 87 4 C87.66 4 88.32 4 89 4 C89.433125 4.515625 89.86625 5.03125 90.3125 5.5625 C90.869375 6.036875 91.42625 6.51125 92 7 C94.51599015 6.66347631 94.51599015 6.66347631 97 6 C97.99 6.33 98.98 6.66 100 7 C99.43628586 10.26954202 98.50037734 11.82575883 96 14 C97.99983534 13.20882096 97.99983534 13.20882096 100 12 C100.33 11.01 100.66 10.02 101 9 C106.875 10.875 106.875 10.875 108 12 C108.99 12 109.98 12 111 12 C110.67 10.02 110.34 8.04 110 6 C110.66 5.67 111.32 5.34 112 5 C114 7 114 7 115 9 C117.02463255 9.65213292 117.02463255 9.65213292 119 10 C119.66 9.01 120.32 8.02 121 7 C122 9 122 9 122 12 C125.12197478 10.6910428 125.12197478 10.6910428 127 8 C129.64779693 8 131.51587793 8.17195931 134 9 C134.33 9.66 134.66 10.32 135 11 C135.99 10.67 136.98 10.34 138 10 C138.33 9.34 138.66 8.68 139 8 C139.99 10.475 139.99 10.475 141 13 C141.99 13 142.98 13 144 13 C144.99 13 145.98 13 147 13 C148.70532323 11.05990478 148.70532323 11.05990478 150 9 C151.98 10.485 151.98 10.485 154 12 C155.32 11.01 156.64 10.02 158 9 C158.33 10.65 158.66 12.3 159 14 C160.94074861 13.72382467 160.94074861 13.72382467 163 13 C163.66 12.01 164.32 11.02 165 10 C165.556875 10.680625 166.11375 11.36125 166.6875 12.0625 C167.450625 12.701875 168.21375 13.34125 169 14 C171.70705512 13.85974801 171.70705512 13.85974801 174 13 C174.33 12.01 174.66 11.02 175 10 C177 10 179 10 181 10 C181.99 12.475 181.99 12.475 183 15 C183.99 14.67 184.98 14.34 186 14 C186.73323796 11.98491642 186.73323796 11.98491642 187 10 C187.99 10 188.98 10 190 10 C190.33 9.01 190.66 8.02 191 7 C191.99 7.495 191.99 7.495 193 8 C193 8.99 193 9.98 193 11 C191.68 11 190.36 11 189 11 C189.33 12.32 189.66 13.64 190 15 C190.33 14.34 190.66 13.68 191 13 C192.65 13.99 194.3 14.98 196 16 C196.33 14.68 196.66 13.36 197 12 C202.75 14.75 202.75 14.75 205 17 C205.99 16.34 206.98 15.68 208 15 C208.99 15.66 209.98 16.32 211 17 C214.0745356 16.2236068 214.0745356 16.2236068 216 14 C219 14 219 14 222 15 C222.66 14.67 223.32 14.34 224 14 C224 14.66 224 15.32 224 16 C224.66 16 225.32 16 226 16 C224.73663864 22.37467067 221.0723041 24.91191599 216.1875 28.6875 C214.63605629 29.9236482 213.08528153 31.1606364 211.53515625 32.3984375 C210.38104248 33.31061035 210.38104248 33.31061035 209.20361328 34.24121094 C206.12174188 36.7009718 203.11985316 39.24810536 200.125 41.8125 C196.30539516 45.0643732 192.45642209 48.27475105 188.5625 51.4375 C182.55264169 56.33248605 176.68248717 61.38317358 170.81152344 66.44287109 C169.00637604 67.99451936 167.19561441 69.53933585 165.3828125 71.08203125 C158.96543508 76.54794182 152.64195742 82.08607384 146.4296875 87.78515625 C144.39484585 89.64006817 142.33678753 91.45428798 140.25 93.25 C136.230539 96.74518348 132.33429882 100.36945391 128.4375 104 C127.81198242 104.58168945 127.18646484 105.16337891 126.54199219 105.76269531 C123.48244494 108.62288163 120.47382003 111.5155367 117.53515625 114.5 C115.16036968 116.89572883 112.71849196 119.14928577 110.16015625 121.34765625 C105.36366129 125.49013624 100.90642481 129.94717571 96.4375 134.4375 C95.62603516 135.24509766 94.81457031 136.05269531 93.97851562 136.88476562 C89.66285956 141.20738804 85.52188617 145.61178043 81.53930664 150.24243164 C79.46687058 152.60872303 77.2530105 154.80627925 75 157 C71.42088738 160.54126701 68.01344385 164.15033045 64.73828125 167.97265625 C62.7078395 170.34074449 60.63736733 172.67077065 58.5625 175 C57.88316406 175.763125 57.20382812 176.52625 56.50390625 177.3125 C56.00761719 177.869375 55.51132812 178.42625 55 179 C47.28013285 174.45186121 40.9722849 168.6492028 34.54736328 162.47998047 C33.1793005 161.17149253 31.79217995 159.88299349 30.40234375 158.59765625 C0.85814089 130.49463402 -16.28034053 89.65022117 -17.98291016 49.18530273 C-18.29570488 35.54567251 -17.73052075 21.17487709 -14 8 C-13.01 8 -12.02 8 -11 8 C-11 7.34 -11 6.68 -11 6 C-10.34 6 -9.68 6 -9 6 C-9 5.34 -9 4.68 -9 4 C-7.125 3.375 -7.125 3.375 -5 3 C-4.34 3.66 -3.68 4.32 -3 5 C-2.01 3.35 -1.02 1.7 0 0 Z M179 13 C179 14.32 179 15.64 179 17 C179.66 16.67 180.32 16.34 181 16 C180.67 15.01 180.34 14.02 180 13 C179.67 13 179.34 13 179 13 Z M156 14 C156.66 14.66 157.32 15.32 158 16 C158 15.34 158 14.68 158 14 C157.34 14 156.68 14 156 14 Z M68 4 C68.66 4.66 69.32 5.32 70 6 C69.01 6.495 69.01 6.495 68 7 C68 6.01 68 5.02 68 4 Z M107 5 C107.66 5.33 108.32 5.66 109 6 C109.625 8.0625 109.625 8.0625 110 10 C108.68 9.67 107.36 9.34 106 9 C106.33 7.68 106.66 6.36 107 5 Z M142 8 C142 11 142 11 142 11 Z " fill="#E82C4F" transform="translate(284,588)"/>
<path d="M0 0 C34.63558136 24.67059566 54.29294483 62.42927426 61.359375 103.83984375 C61.57767797 105.22582093 61.79178455 106.61247153 62 108 C62.22429687 109.48693359 62.22429687 109.48693359 62.453125 111.00390625 C62.76359126 113.67963519 62.9133745 116.30739063 63 119 C63.03867187 119.94601074 63.03867187 119.94601074 63.078125 120.91113281 C64.26454832 153.22633807 56.41931016 184.75278555 43 214 C42.34 214 41.68 214 41 214 C41 211.36 41 208.72 41 206 C40.34 206 39.68 206 39 206 C38.34 205.34 37.68 204.68 37 204 C36.01 204 35.02 204 34 204 C32 200.25 32 200.25 32 198 C31.01 198 30.02 198 29 198 C28.67 198.66 28.34 199.32 28 200 C27.34 198.68 26.68 197.36 26 196 C25.01 196 24.02 196 23 196 C22.67 196.66 22.34 197.32 22 198 C20.68 196.02 19.36 194.04 18 192 C17.01 192.33 16.02 192.66 15 193 C14.566875 192.360625 14.13375 191.72125 13.6875 191.0625 C12.08760823 188.73253997 12.08760823 188.73253997 9 188 C8.67 188.66 8.34 189.32 8 190 C7.731875 189.4225 7.46375 188.845 7.1875 188.25 C5.97070811 185.94449957 4.69666121 183.97943808 3 182 C2.34 182 1.68 182 1 182 C0.67 182.66 0.34 183.32 0 184 C-1.485 182.02 -1.485 182.02 -3 180 C-3.33 180.66 -3.66 181.32 -4 182 C-5.485 180.02 -5.485 180.02 -7 178 C-7.33 178.66 -7.66 179.32 -8 180 C-9.125 176.25 -9.125 176.25 -8 174 C-8.99 174 -9.98 174 -11 174 C-11 174.66 -11 175.32 -11 176 C-13.84663337 174.57668332 -15.57668332 172.84663337 -17 170 C-17.66 170 -18.32 170 -19 170 C-19.33 170.99 -19.66 171.98 -20 173 C-20.66 172.67 -21.32 172.34 -22 172 C-22 170.02 -22 168.04 -22 166 C-22.99 166 -23.98 166 -25 166 C-25.66 167.32 -26.32 168.64 -27 170 C-28.32 168.02 -29.64 166.04 -31 164 C-31.33 164.66 -31.66 165.32 -32 166 C-32.33 164.68 -32.66 163.36 -33 162 C-33.66 162 -34.32 162 -35 162 C-35.66 160.68 -36.32 159.36 -37 158 C-37.66 158 -38.32 158 -39 158 C-39.33 158.99 -39.66 159.98 -40 161 C-40.66 160.67 -41.32 160.34 -42 160 C-42.625 157.9375 -42.625 157.9375 -43 156 C-43.99 156 -44.98 156 -46 156 C-46.33 156.66 -46.66 157.32 -47 158 C-47.66 158 -48.32 158 -49 158 C-49.495 155.525 -49.495 155.525 -50 153 C-50.33 153.33 -50.66 153.66 -51 154 C-53.79872437 151.47211993 -55.45773019 149.79588866 -56 146 C-56.99 146 -57.98 146 -59 146 C-59.33 146.66 -59.66 147.32 -60 148 C-60.99 146.02 -60.99 146.02 -62 144 C-62.99 144 -63.98 144 -65 144 C-65.33 144.66 -65.66 145.32 -66 146 C-66.598125 145.01 -67.19625 144.02 -67.8125 143 C-68.534375 142.01 -69.25625 141.02 -70 140 C-70.99 140 -71.98 140 -73 140 C-73 139.34 -73 138.68 -73 138 C-73.66 138 -74.32 138 -75 138 C-75.99 136.02 -75.99 136.02 -77 134 C-77.66 134 -78.32 134 -79 134 C-79.33 134.99 -79.66 135.98 -80 137 C-82.34058637 134.87219421 -83.70700306 132.88437779 -85 130 C-85.99 131.98 -85.99 131.98 -87 134 C-88.32 132.02 -89.64 130.04 -91 128 C-91.33 128.66 -91.66 129.32 -92 130 C-92.99 130 -93.98 130 -95 130 C-95.495 127.03 -95.495 127.03 -96 124 C-96.99 124 -97.98 124 -99 124 C-99.33 124.66 -99.66 125.32 -100 126 C-100.268125 125.4225 -100.53625 124.845 -100.8125 124.25 C-102.02929189 121.94449957 -103.30333879 119.97943808 -105 118 C-105.66 118 -106.32 118 -107 118 C-107.495 118.99 -107.495 118.99 -108 120 C-108.495 117.03 -108.495 117.03 -109 114 C-110.32 114 -111.64 114 -113 114 C-113.495 114.99 -113.495 114.99 -114 116 C-114.99 116 -115.98 116 -117 116 C-114.54765933 111.1313825 -111.09982889 108.18922439 -107 104.75 C-105.99296021 103.89075928 -105.99296021 103.89075928 -104.96557617 103.01416016 C-101.12363886 99.74803245 -97.23336721 96.54603713 -93.3125 93.375 C-88.27264088 89.29511405 -83.51751948 84.95718177 -78.765625 80.55078125 C-76.55944053 78.51598117 -74.33367739 76.52353762 -72.0625 74.5625 C-62.10114922 65.90771288 -52.60566679 56.77160454 -43.29541016 47.42578125 C-41.60824042 45.73318653 -39.91569804 44.04609403 -38.22265625 42.359375 C-33.13226009 37.27209254 -28.12438758 32.1726752 -23.44970703 26.69482422 C-21.24881293 24.12180185 -18.93276474 21.66505524 -16.625 19.1875 C-12.13654838 14.3376933 -7.91100255 9.33741728 -3.77734375 4.1796875 C-2 2 -2 2 0 0 Z M-93 124 C-92 126 -92 126 -92 126 Z M-87 128 C-86 130 -86 130 -86 130 Z M-82 132 C-81 134 -81 134 -81 134 Z M-73 136 C-72 138 -72 138 -72 138 Z M-69 138 C-68 140 -68 140 -68 140 Z M-54 148 C-53 150 -53 150 -53 150 Z M-47 152 C-46 154 -46 154 -46 154 Z M-33 160 C-32 162 -32 162 -32 162 Z M-29 162 C-28 164 -28 164 -28 164 Z M-27 164 C-26 166 -26 166 -26 166 Z M-5 176 C-4 178 -4 178 -4 178 Z M41 204 C42 206 42 206 42 206 Z " fill="#E23608" transform="translate(428,1)"/>
<path d="M0 0 C34.7783793 -1.6561133 69.02775542 17.3935933 94.375 39.5625 C117.02884013 60.6984949 135.88465195 91.13792332 137.11132812 122.88085938 C137.23698246 129.25680359 137.17343484 135.62560249 137 142 C136.34 141.34 135.68 140.68 135 140 C134.34 140.99 133.68 141.98 133 143 C132.34 143 131.68 143 131 143 C130.87625 141.865625 130.7525 140.73125 130.625 139.5625 C130.41875 138.386875 130.2125 137.21125 130 136 C129.34 135.67 128.68 135.34 128 135 C128.20625 135.94875 128.4125 136.8975 128.625 137.875 C128.74875 138.90625 128.8725 139.9375 129 141 C126.82586238 143.17413762 125.93446884 143.46646021 123 144 C122.01 144 121.02 144 120 144 C119.34 143.34 118.68 142.68 118 142 C117.34 142.99 116.68 143.98 116 145 C115.34 144.34 114.68 143.68 114 143 C113.34 143.66 112.68 144.32 112 145 C111.34 144.34 110.68 143.68 110 143 C106.09161134 143 104.88405893 144.50567876 102 147 C101.34 146.34 100.68 145.68 100 145 C100 144.01 100 143.02 100 142 C99.01 141.67 98.02 141.34 97 141 C96.34 141.66 95.68 142.32 95 143 C94.67 142.34 94.34 141.68 94 141 C90.94729537 140.84188612 90.94729537 140.84188612 88 142 C86.33333333 141.66666667 84.66666667 141.33333333 83 141 C82.01 141.33 81.02 141.66 80 142 C79.01 142 78.02 142 77 142 C75.31201173 143.43750191 75.31201173 143.43750191 74 145 C72 143 72 143 70 140 C69.01 140.66 68.02 141.32 67 142 C65 141.625 65 141.625 63 141 C62.01 141 61.02 141 60 141 C58.31763529 140.37400383 56.6476038 139.71247732 55 139 C54.34 139.66 53.68 140.32 53 141 C53 140.34 53 139.68 53 139 C52.34 138.67 51.68 138.34 51 138 C50.67 137.67 50.34 137.34 50 137 C49.67 138.32 49.34 139.64 49 141 C48.34 140.34 47.68 139.68 47 139 C44.52733235 139.34444881 44.52733235 139.34444881 42 140 C38.77018017 140 36.96174371 139.18469748 34 138 C33.01 138 32.02 138 31 138 C30.67 137.67 30.34 137.34 30 137 C29.34 137.66 28.68 138.32 28 139 C27.67 138.34 27.34 137.68 27 137 C26.01 137 25.02 137 24 137 C23.34 137.66 22.68 138.32 22 139 C21.67 138.34 21.34 137.68 21 137 C17.73045798 137.56371414 16.17424117 138.49962266 14 141 C13.319375 140.2575 13.319375 140.2575 12.625 139.5 C11.12364481 137.77390663 11.12364481 137.77390663 9 138 C8.34 137.34 7.68 136.68 7 136 C4.56675542 136.32016376 2.3018972 136.9176644 -0.0625 137.5625 C-2 138 -2 138 -6 138 C-6.33 138.66 -6.66 139.32 -7 140 C-7 138.35 -7 136.7 -7 135 C-7.66 135.66 -8.32 136.32 -9 137 C-9.33 136.34 -9.66 135.68 -10 135 C-10.5775 135.2475 -11.155 135.495 -11.75 135.75 C-12.4925 135.8325 -13.235 135.915 -14 136 C-16.25 134.0625 -16.25 134.0625 -18 132 C-18.33 132.66 -18.66 133.32 -19 134 C-18.34 134.33 -17.68 134.66 -17 135 C-17.99 135.33 -18.98 135.66 -20 136 C-20.66 135.67 -21.32 135.34 -22 135 C-22.66 135.66 -23.32 136.32 -24 137 C-24.99 136.01 -24.99 136.01 -26 135 C-26.66 135.66 -27.32 136.32 -28 137 C-28.99 136.01 -28.99 136.01 -30 135 C-33.57575896 135 -35.05295935 136.08840607 -38 138 C-38.33 137.34 -38.66 136.68 -39 136 C-39.66 136 -40.32 136 -41 136 C-41 135.01 -41 134.02 -41 133 C-41.66 133.66 -42.32 134.32 -43 135 C-43 134.34 -43 133.68 -43 133 C-43.66 132.67 -44.32 132.34 -45 132 C-45.33 131.67 -45.66 131.34 -46 131 C-46 131.99 -46 132.98 -46 134 C-45.34 134.33 -44.68 134.66 -44 135 C-44.99 135.33 -45.98 135.66 -47 136 C-47.61875 135.525625 -48.2375 135.05125 -48.875 134.5625 C-51.54332552 132.60049594 -52.74892518 132.52423295 -56 133 C-58.76441969 134.40759341 -58.76441969 134.40759341 -61 136 C-61 135.01 -61 134.02 -61 133 C-64.84723602 133 -67.59665634 134.29832817 -71 136 C-72.5625 134.75 -72.5625 134.75 -74 133 C-73.74992424 130.4671814 -73.30989491 129.30195398 -71.47558594 127.51464844 C-70.81848633 127.0509082 -70.16138672 126.58716797 -69.484375 126.109375 C-68.73841064 125.57296387 -67.99244629 125.03655273 -67.22387695 124.48388672 C-66.40749756 123.9117041 -65.59111816 123.33952148 -64.75 122.75 C-63.00786102 121.49913989 -61.26702236 120.2464672 -59.52734375 118.9921875 C-58.61839355 118.33959961 -57.70944336 117.68701172 -56.77294922 117.01464844 C-52.22716532 113.71197114 -47.77087698 110.29426501 -43.3125 106.875 C-37.73497287 102.6039713 -32.14643403 98.35285175 -26.5012207 94.17163086 C-18.730141 88.40849879 -11.28183841 82.36920694 -4 76 C-3.10539062 75.21753906 -2.21078125 74.43507813 -1.2890625 73.62890625 C1.16825081 71.44756813 3.58763417 69.23083328 6 67 C7.15628906 65.97712891 7.15628906 65.97712891 8.3359375 64.93359375 C17.1358536 56.77940529 23.95863303 45.91190891 25.37109375 33.82421875 C25.56132047 24.83880349 24.04625019 18.60575172 18.05078125 11.78125 C12.71557054 6.64718727 6.85849098 3.66647873 0 1 C0 0.67 0 0.34 0 0 Z M-60 131 C-59 133 -59 133 -59 133 Z M-52 134 C-51.01 134 -50.02 134 -49 134 C-49.33 134.66 -49.66 135.32 -50 136 C-50.66 135.34 -51.32 134.68 -52 134 Z " fill="#F45836" transform="translate(499,291)"/>
<path d="M0 0 C2 2 2 2 3.3125 4.625 C3.869375 5.40875 4.42625 6.1925 5 7 C7.62694422 7.41780879 7.62694422 7.41780879 10 7 C10.66 5.68 11.32 4.36 12 3 C11.01 3.33 10.02 3.66 9 4 C9.33 3.01 9.66 2.02 10 1 C11.32 1.33 12.64 1.66 14 2 C14.495 3.98 14.495 3.98 15 6 C15.33 5.34 15.66 4.68 16 4 C19.375 2.75 19.375 2.75 23 2 C23.99 2.66 24.98 3.32 26 4 C26.66 3.67 27.32 3.34 28 3 C28.66 3.66 29.32 4.32 30 5 C30.66 5 31.32 5 32 5 C32.66 6.32 33.32 7.64 34 9 C34.66 8.67 35.32 8.34 36 8 C36.66 8.66 37.32 9.32 38 10 C38.39445312 9.51015625 38.78890625 9.0203125 39.1953125 8.515625 C41.54987618 6.53819923 42.83892442 6.65771807 45.875 6.75 C46.75929688 6.77578125 47.64359375 6.8015625 48.5546875 6.828125 C51.10637581 7.00747689 53.5181054 7.37952635 56 8 C56.66 8 57.32 8 58 8 C59.625 9.5 59.625 9.5 61 11 C61.33 10.01 61.66 9.02 62 8 C64.97 7.505 64.97 7.505 68 7 C68.99 8.98 68.99 8.98 70 11 C70.7425 10.814375 71.485 10.62875 72.25 10.4375 C75.00356798 9.99943237 76.38672389 10.21601717 79 11 C82.1474213 11 83.28801537 10.399734 86 9 C86.66 9 87.32 9 88 9 C88.33 8.01 88.66 7.02 89 6 C91 7 91 7 92 8 C92.99 7.67 93.98 7.34 95 7 C95.99 8.485 95.99 8.485 97 10 C99.33167378 10.08798769 101.66800612 10.07905064 104 10 C106.5 10.5 106.5 10.5 109 11 C112.62563814 11.33380814 112.62563814 11.33380814 116 11 C116.66 10.01 117.32 9.02 118 8 C118.99 9.485 118.99 9.485 120 11 C122.20725073 11.36362818 122.20725073 11.36362818 124.625 11.1875 C125.44226563 11.16042969 126.25953125 11.13335938 127.1015625 11.10546875 C127.72804688 11.07066406 128.35453125 11.03585937 129 11 C129.33 10.01 129.66 9.02 130 8 C130.99 8.99 130.99 8.99 132 10 C131.67 10.66 131.34 11.32 131 12 C133.31 12.33 135.62 12.66 138 13 C138.33 12.34 138.66 11.68 139 11 C142.08311675 10.17783553 144.22704635 9.77020297 147.3125 10.6875 C149 12 149 12 149.875 14 C149.91625 14.66 149.9575 15.32 150 16 C149.34 16.66 148.68 17.32 148 18 C148.33 18.99 148.66 19.98 149 21 C148.53851563 21.40089844 148.07703125 21.80179688 147.6015625 22.21484375 C135.427436 32.82510024 123.26428025 43.5571036 111.9465332 55.0859375 C110.1440743 56.85832904 108.29204449 58.50346006 106.3671875 60.140625 C101.51105113 64.36293843 96.97524695 68.87802401 92.4375 73.4375 C91.62603516 74.24509766 90.81457031 75.05269531 89.97851562 75.88476562 C85.66285956 80.20738804 81.52188617 84.61178043 77.53930664 89.24243164 C75.46687058 91.60872303 73.2530105 93.80627925 71 96 C67.42088738 99.54126701 64.01344385 103.15033045 60.73828125 106.97265625 C58.7078395 109.34074449 56.63736733 111.67077065 54.5625 114 C53.88316406 114.763125 53.20382812 115.52625 52.50390625 116.3125 C52.00761719 116.869375 51.51132812 117.42625 51 118 C43.28013285 113.45186121 36.9722849 107.6492028 30.54736328 101.47998047 C29.1793005 100.17149253 27.79217995 98.88299349 26.40234375 97.59765625 C3.98143989 76.27045502 -17.46050909 41.22399998 -19.1875 9.5625 C-19 7 -19 7 -18 5 C-17.484375 5.37125 -16.96875 5.7425 -16.4375 6.125 C-13.84402472 7.32355288 -13.84402472 7.32355288 -10.5 6 C-7 5 -7 5 -4.5625 5.875 C-4.046875 6.24625 -3.53125 6.6175 -3 7 C-2.690625 6.030625 -2.38125 5.06125 -2.0625 4.0625 C-1 1 -1 1 0 0 Z " fill="#E03077" transform="translate(288,649)"/>
<path d="M0 0 C0.66 0.33 1.32 0.66 2 1 C1.58113525 1.41362793 1.16227051 1.82725586 0.73071289 2.25341797 C-1.16129409 4.12466831 -3.04943185 5.99977585 -4.9375 7.875 C-5.59685547 8.52597656 -6.25621094 9.17695313 -6.93554688 9.84765625 C-7.56396484 10.47285156 -8.19238281 11.09804687 -8.83984375 11.7421875 C-9.42113037 12.3182373 -10.00241699 12.89428711 -10.60131836 13.48779297 C-12.09951936 14.96652475 -12.09951936 14.96652475 -13 17 C-13.66 17 -14.32 17 -15 17 C-15 17.66 -15 18.32 -15 19 C-13.68 19 -12.36 19 -11 19 C-11 19.66 -11 20.32 -11 21 C-10.34 21 -9.68 21 -9 21 C-9 21.66 -9 22.32 -9 23 C-7.35 23 -5.7 23 -4 23 C-3.31292445 25.49064888 -3 27.37886292 -3 30 C-1.68 29.34 -0.36 28.68 1 28 C1 28.99 1 29.98 1 31 C1.33 31.33 1.66 31.66 2 32 C2.804375 31.814375 3.60875 31.62875 4.4375 31.4375 C5.7059375 31.2209375 5.7059375 31.2209375 7 31 C9 33 11 35 13 37 C12.67 37.33 12.34 37.66 12 38 C12.763125 37.835 13.52625 37.67 14.3125 37.5 C17 37 17 37 20 37 C20 37.99 20 38.98 20 40 C20.66 40.33 21.32 40.66 22 41 C22.33 41.99 22.66 42.98 23 44 C23.61875 43.79375 24.2375 43.5875 24.875 43.375 C25.57625 43.25125 26.2775 43.1275 27 43 C27.66 43.66 28.32 44.32 29 45 C28.67 45.33 28.34 45.66 28 46 C29.65 46.66 31.3 47.32 33 48 C33 48.66 33 49.32 33 50 C33.94875 50.309375 34.8975 50.61875 35.875 50.9375 C39 52 39 52 41 53 C41 53.99 41 54.98 41 56 C46.08303686 56.11320856 46.08303686 56.11320856 51 55 C51 55.66 51 56.32 51 57 C50.67 57.33 50.34 57.66 50 58 C52.67247634 60.34287418 52.67247634 60.34287418 56 61 C56.99 61 57.98 61 59 61 C59 61.66 59 62.32 59 63 C58.34 63 57.68 63 57 63 C57 63.99 57 64.98 57 66 C58.65 66 60.3 66 62 66 C62.33 66.66 62.66 67.32 63 68 C64.32 67.34 65.64 66.68 67 66 C67.33 67.32 67.66 68.64 68 70 C68.99 68.515 68.99 68.515 70 67 C71.485 67.495 71.485 67.495 73 68 C72.01 68.495 72.01 68.495 71 69 C71 69.66 71 70.32 71 71 C71.66 71.33 72.32 71.66 73 72 C74.35308313 73.31328657 75.68870078 74.64499081 77 76 C78.32 75.34 79.64 74.68 81 74 C81.66 74.66 82.32 75.32 83 76 C82.625 78.125 82.625 78.125 82 80 C84.475 79.01 84.475 79.01 87 78 C89 81 89 81 89 84 C90.32 83.34 91.64 82.68 93 82 C93.4021875 82.9590625 93.4021875 82.9590625 93.8125 83.9375 C94.88667752 86.33131686 94.88667752 86.33131686 98 87 C97.67 87.99 97.34 88.98 97 90 C102.08303686 90.11320856 102.08303686 90.11320856 107 89 C107 89.66 107 90.32 107 91 C108.98 91 110.96 91 113 91 C113 91.99 113 92.98 113 94 C113.33 94.33 113.66 94.66 114 95 C114.99 96.485 114.99 96.485 116 98 C116.99 97.34 117.98 96.68 119 96 C121 99 121 99 121 102 C123.475 101.505 123.475 101.505 126 101 C126 101.99 126 102.98 126 104 C126.94978897 106.15028304 126.94978897 106.15028304 128 108 C129.32 107.34 130.64 106.68 132 106 C132.33 106.66 132.66 107.32 133 108 C133.99 107.67 134.98 107.34 136 107 C136.66 107.66 137.32 108.32 138 109 C137.67 109.66 137.34 110.32 137 111 C137.99 111.33 138.98 111.66 140 112 C140 112.66 140 113.32 140 114 C142.78918149 115.10540926 142.78918149 115.10540926 145 115 C148.61537605 115 150.11165997 115.89229241 153 118 C153 118.99 153 119.98 153 121 C150.30840615 122.7943959 148.56988929 123.55846103 145.53515625 124.4375 C144.65867432 124.69184814 143.78219238 124.94619629 142.87915039 125.20825195 C141.94965576 125.46952881 141.02016113 125.73080566 140.0625 126 C139.11044678 126.2683667 138.15839355 126.5367334 137.17749023 126.81323242 C95.84022973 138.24394485 48.4962609 131.76018598 10.97509766 111.12402344 C4.84883035 107.6375791 -1.13564774 103.91009266 -7 100 C-7.66628418 99.5570459 -8.33256836 99.1140918 -9.01904297 98.65771484 C-10.71821702 97.49323696 -12.36453654 96.25238193 -14 95 C-14 94.34 -14 93.68 -14 93 C-14.66 93 -15.32 93 -16 93 C-16 92.34 -16 91.68 -16 91 C-16.556875 90.773125 -17.11375 90.54625 -17.6875 90.3125 C-20.66159588 88.62449964 -22.72008865 86.53323483 -25 84 C-25 83.34 -25 82.68 -25 82 C-25.66 82 -26.32 82 -27 82 C-31.81528287 76.58606034 -35.14949195 70.06136135 -38.375 63.625 C-38.72062988 62.93535156 -39.06625977 62.24570312 -39.42236328 61.53515625 C-42.61024647 55.01586336 -42.61024647 55.01586336 -43 52 C-42.15478516 50.06811523 -42.15478516 50.06811523 -40.7890625 48.05859375 C-40.29059814 47.31544922 -39.79213379 46.57230469 -39.27856445 45.80664062 C-38.73288818 45.02482422 -38.18721191 44.24300781 -37.625 43.4375 C-37.07352295 42.63119141 -36.5220459 41.82488281 -35.95385742 40.99414062 C-31.60983017 34.71264826 -27.03566455 28.74712542 -22 23 C-21.30777344 22.19820312 -20.61554688 21.39640625 -19.90234375 20.5703125 C-13.58929233 13.39795281 -6.80000219 6.70541174 0 0 Z M-13 21 C-12.67 21.66 -12.34 22.32 -12 23 C-11.67 22.34 -11.34 21.68 -11 21 C-11.66 21 -12.32 21 -13 21 Z M-11 23 C-10.67 23.66 -10.34 24.32 -10 25 C-9.67 24.34 -9.34 23.68 -9 23 C-9.66 23 -10.32 23 -11 23 Z M-12 25 C-11 27 -11 27 -11 27 Z M-9 25 C-8 27 -8 27 -8 27 Z M5 33 C6 35 6 35 6 35 Z M42 57 C43 59 43 59 43 59 Z M47 59 C47.66 59.66 48.32 60.32 49 61 C49 60.34 49 59.68 49 59 C48.34 59 47.68 59 47 59 Z M114 99 C115 101 115 101 115 101 Z M130 109 C130.33 109.66 130.66 110.32 131 111 C131.33 110.34 131.66 109.68 132 109 C131.34 109 130.68 109 130 109 Z M135 111 C135.66 111.66 136.32 112.32 137 113 C137 112.34 137 111.68 137 111 C136.34 111 135.68 111 135 111 Z M134 113 C134.66 113.66 135.32 114.32 136 115 C136 114.34 136 113.68 136 113 C135.34 113 134.68 113 134 113 Z M142 117 C143 119 143 119 143 119 Z M147 117 C147.33 117.66 147.66 118.32 148 119 C148.33 118.34 148.66 117.68 149 117 C148.34 117 147.68 117 147 117 Z " fill="#EF531E" transform="translate(205,203)"/>
<path d="M0 0 C34.7783793 -1.6561133 69.02775542 17.3935933 94.375 39.5625 C110.55559636 54.6589693 126.02695777 75.23615648 132 97 C131.67 97.66 131.34 98.32 131 99 C130.34 98.34 129.68 97.68 129 97 C127.02463255 97.34786708 127.02463255 97.34786708 125 98 C122.16032769 98 119.76264289 97.59732819 117 97 C116.34 97.99 115.68 98.98 115 100 C114.401875 99.649375 113.80375 99.29875 113.1875 98.9375 C110.89186786 97.66695302 110.89186786 97.66695302 108 99 C107.443125 98.46375 106.88625 97.9275 106.3125 97.375 C105.549375 96.92125 104.78625 96.4675 104 96 C101.91385822 96.61199448 100.01528087 97.48592353 98.02734375 98.36328125 C94.95955774 99.32676703 92.87644721 98.20409418 90 97 C86.9254644 97.7763932 86.9254644 97.7763932 85 100 C84.01 100 83.02 100 82 100 C81.34 99.34 80.68 98.68 80 98 C80.375 95.875 80.375 95.875 81 94 C80.34 94 79.68 94 79 94 C78.34 94.66 77.68 95.32 77 96 C71 96 71 96 69.3125 94.5 C68.879375 94.005 68.44625 93.51 68 93 C67.3503125 93.7425 67.3503125 93.7425 66.6875 94.5 C65 96 65 96 62 96 C60.31763529 96.62599617 58.6476038 97.28752268 57 98 C57.495 96.02 57.495 96.02 58 94 C55.11163632 92.88909089 54.01338473 92.99553842 51 94 C47.89401891 95.03532703 46.97526459 95.02595331 44 94 C43.01 94 42.02 94 41 94 C40.01 93.67 39.02 93.34 38 93 C38.33 92.34 38.66 91.68 39 91 C38.34 91 37.68 91 37 91 C36.566875 91.474375 36.13375 91.94875 35.6875 92.4375 C33.44717439 94.51187557 32.03609572 94.78817937 29 95 C25.6875 94.0625 25.6875 94.0625 23 93 C23 92.34 23 91.68 23 91 C22.01 91.99 21.02 92.98 20 94 C19.01 93.67 18.02 93.34 17 93 C17 92.34 17 91.68 17 91 C15.68 92.65 14.36 94.3 13 96 C13 95.01 13 94.02 13 93 C11.05990478 91.29467677 11.05990478 91.29467677 9 90 C7.02 90.99 7.02 90.99 5 92 C3.515 91.01 3.515 91.01 2 90 C-1.0678843 89.83611365 -1.0678843 89.83611365 -4.0625 91.0625 C-7 92 -7 92 -9 91 C-9 92.98 -9 94.96 -9 97 C-9.66 96.01 -10.32 95.02 -11 94 C-12.299375 92.7625 -12.299375 92.7625 -13.625 91.5 C-16 89 -16 89 -16 86 C-14.015625 84.125 -14.015625 84.125 -11.25 82 C-4.87425475 76.95356071 1.06852487 71.55711835 7 66 C8.11568359 65.01773438 8.11568359 65.01773438 9.25390625 64.015625 C17.6923458 56.2872694 24.03718776 45.23964581 25.37109375 33.82421875 C25.56132047 24.83880349 24.04625019 18.60575172 18.05078125 11.78125 C12.71557054 6.64718727 6.85849098 3.66647873 0 1 C0 0.67 0 0.34 0 0 Z M9 92 C9.99 92.495 9.99 92.495 11 93 C10.01 93.495 10.01 93.495 9 94 C9 93.34 9 92.68 9 92 Z M54 94 C54.99 94.495 54.99 94.495 56 95 C55.01 95.495 55.01 95.495 54 96 C54 95.34 54 94.68 54 94 Z M123 98 C123.99 98.495 123.99 98.495 125 99 C124.01 99.495 124.01 99.495 123 100 C123 99.34 123 98.68 123 98 Z " fill="#F66331" transform="translate(499,291)"/>
<path d="M0 0 C0.66 0.66 1.32 1.32 2 2 C1.814375 2.639375 1.62875 3.27875 1.4375 3.9375 C1.293125 4.618125 1.14875 5.29875 1 6 C2.35444301 7.77190909 2.35444301 7.77190909 4 9 C4.66 8.34 5.32 7.68 6 7 C6.33 7.66 6.66 8.32 7 9 C8.051875 8.814375 9.10375 8.62875 10.1875 8.4375 C13.68489967 8.03615905 15.64428069 8.32885614 19 9 C21.3406065 8.72230092 23.67624308 8.39460023 26 8 C26.66 8 27.32 8 28 8 C28.66 7.01 29.32 6.02 30 5 C30.66 5.99 31.32 6.98 32 8 C33.32 8 34.64 8 36 8 C36.66 6.68 37.32 5.36 38 4 C39.875 4.125 39.875 4.125 42 5 C43.1875 7.875 43.1875 7.875 44 11 C44.495 12.485 44.495 12.485 45 14 C45.66 14 46.32 14 47 14 C47.33 13.34 47.66 12.68 48 12 C52.68864968 10.98872262 56.32715724 11.1692724 61 12 C62.34164079 11.7018576 63.67851173 11.37756808 65 11 C65.99 11.495 65.99 11.495 67 12 C67.66 11.34 68.32 10.68 69 10 C71.625 9.875 71.625 9.875 74 10 C74.495 11.485 74.495 11.485 75 13 C80.37314616 13.09433998 80.37314616 13.09433998 84.75 10.4375 C85.1625 9.963125 85.575 9.48875 86 9 C86.99 9.99 87.98 10.98 89 12 C89.99 10.68 90.98 9.36 92 8 C92.99 9.485 92.99 9.485 94 11 C94.99 11 95.98 11 97 11 C97.99 11.99 97.99 11.99 99 13 C99.66 12.34 100.32 11.68 101 11 C101.66 11 102.32 11 103 11 C103.66 10.34 104.32 9.68 105 9 C106.34262065 9.29369827 107.67696283 9.6278958 109 10 C109.66 9.67 110.32 9.34 111 9 C111.495 11.97 111.495 11.97 112 15 C112.99 14.67 113.98 14.34 115 14 C118.11589064 14 120.93150124 14.48858354 124 15 C124.99 15 125.98 15 127 15 C127.99 15.33 128.98 15.66 130 16 C131.34262065 15.70630173 132.67696283 15.3721042 134 15 C137 15 137 15 140 17 C140 16.34 140 15.68 140 15 C140.99 14.67 141.98 14.34 143 14 C144.66666667 15 146.33333333 16 148 17 C148.99 16.67 149.98 16.34 151 16 C151.99 17.98 151.99 17.98 153 20 C156.04134491 18.33075929 156.04134491 18.33075929 157 16 C157.99 16.99 157.99 16.99 159 18 C159.639375 17.67 160.27875 17.34 160.9375 17 C164.93671126 15.6941351 168.8209137 15.44169377 173 16 C173.99 16.99 173.99 16.99 175 18 C175.391875 17.505 175.78375 17.01 176.1875 16.5 C178.55091715 14.54406857 180.01435003 14.75792027 183 15 C183.99 18.465 183.99 18.465 185 22 C185.66 22 186.32 22 187 22 C187.33 21.34 187.66 20.68 188 20 C188.66 20 189.32 20 190 20 C190 20.99 190 21.98 190 23 C190.66 23.33 191.32 23.66 192 24 C183.00716686 32.44954592 173.92650269 40.64109154 164 48 C163.34 47.01 162.68 46.02 162 45 C162.99 44.67 163.98 44.34 165 44 C163.17462896 41.73980102 163.17462896 41.73980102 160.5 41.8125 C158.00209044 41.84101023 158.00209044 41.84101023 156 43 C155.34 42.34 154.68 41.68 154 41 C151.03 41.99 151.03 41.99 148 43 C148 42.01 148 41.02 148 40 C147.34 40 146.68 40 146 40 C145.67 39.01 145.34 38.02 145 37 C144.67 37.99 144.34 38.98 144 40 C141.67471713 42.32528287 141.15334102 42.29511025 138 42.3125 C137.29875 42.32925781 136.5975 42.34601562 135.875 42.36328125 C135.25625 42.24339844 134.6375 42.12351562 134 42 C133.34 41.01 132.68 40.02 132 39 C131.608125 39.515625 131.21625 40.03125 130.8125 40.5625 C130.214375 41.036875 129.61625 41.51125 129 42 C126.5 41.6875 126.5 41.6875 124 41 C123.01 41 122.02 41 121 41 C120.401875 40.649375 119.80375 40.29875 119.1875 39.9375 C116.21408621 38.6631798 114.12987622 39.4556737 111 40 C110.34 39.34 109.68 38.68 109 38 C108.319375 37.855625 107.63875 37.71125 106.9375 37.5625 C105.9784375 37.2840625 105.9784375 37.2840625 105 37 C104.67 36.01 104.34 35.02 104 34 C103.67 35.32 103.34 36.64 103 38 C102.236875 38.12375 101.47375 38.2475 100.6875 38.375 C97.79732864 38.88102792 97.79732864 38.88102792 95 41 C94.34 40.34 93.68 39.68 93 39 C89.94729537 38.84188612 89.94729537 38.84188612 87 40 C84.3125 39.5625 84.3125 39.5625 82 39 C82 38.34 82 37.68 82 37 C80.515 37.495 80.515 37.495 79 38 C78.67 37.67 78.34 37.34 78 37 C77.01 37.99 76.02 38.98 75 40 C74.34 39.34 73.68 38.68 73 38 C72.01 38 71.02 38 70 38 C69.01 38 68.02 38 67 38 C66.67 37.34 66.34 36.68 66 36 C65.278125 36.144375 64.55625 36.28875 63.8125 36.4375 C62.884375 36.623125 61.95625 36.80875 61 37 C60.113125 37.185625 59.22625 37.37125 58.3125 37.5625 C54.07127389 38.36489413 50.19209107 37.90639807 46 37 C46 36.34 46 35.68 46 35 C44.4221875 35.0309375 44.4221875 35.0309375 42.8125 35.0625 C39.65802577 35.01078731 37.01362527 34.88636037 34 34 C33.67 33.34 33.34 32.68 33 32 C32.505 32.99 32.505 32.99 32 34 C30.68 34 29.36 34 28 34 C27.505 32.02 27.505 32.02 27 30 C26.01 30.495 26.01 30.495 25 31 C25.66 31 26.32 31 27 31 C26.67 32.32 26.34 33.64 26 35 C21.94568308 36.15837626 19.78187881 35.83691257 16 34 C16 32.35 16 30.7 16 29 C14.42726432 31.8424854 14.42726432 31.8424854 14 35 C12.515 35.495 12.515 35.495 11 36 C10.34 35.34 9.68 34.68 9 34 C7.32577014 34.29299023 5.65821773 34.62690101 4 35 C3.34 34.67 2.68 34.34 2 34 C1.67 34.66 1.34 35.32 1 36 C-0.32 35.01 -1.64 34.02 -3 33 C-3.33 33.99 -3.66 34.98 -4 36 C-4.33 36 -4.66 36 -5 36 C-5.94425274 30.37255828 -6.2149379 24.88947466 -6.25 19.1875 C-6.270625 18.32962891 -6.29125 17.47175781 -6.3125 16.58789062 C-6.31765625 15.76869141 -6.3228125 14.94949219 -6.328125 14.10546875 C-6.3374707 13.36449951 -6.34681641 12.62353027 -6.35644531 11.86010742 C-6.23881836 11.24627197 -6.12119141 10.63243652 -6 10 C-5.01 9.34 -4.02 8.68 -3 8 C-3 7.195625 -3 6.39125 -3 5.5625 C-3 3 -3 3 -1.5 1.1875 C-1.005 0.795625 -0.51 0.40375 0 0 Z M84 35 C85 37 85 37 85 37 Z " fill="#E42D63" transform="translate(273,621)"/>
<path d="M0 0 C0.45375 0.495 0.9075 0.99 1.375 1.5 C2.87635519 3.22609337 2.87635519 3.22609337 5 3 C5.99 3 6.98 3 8 3 C8 3.66 8 4.32 8 5 C10.31 4.34 12.62 3.68 15 3 C15 3.99 15 4.98 15 6 C15.639375 6.28875 16.27875 6.5775 16.9375 6.875 C19 8 19 8 20 10 C20.66 9.34 21.32 8.68 22 8 C23.32 8 24.64 8 26 8 C26.86625 7.938125 27.7325 7.87625 28.625 7.8125 C29.40875 7.874375 30.1925 7.93625 31 8 C31.66 8.99 32.32 9.98 33 11 C37.82442184 9.73053486 37.82442184 9.73053486 41 6 C41.66 6.99 42.32 7.98 43 9 C44.94556349 9 46.89222368 8.9910666 48.8359375 8.90625 C52.30990224 9.05674667 54.87473508 10.5292871 58 12 C58.99 12 59.98 12 61 12 C62.70532323 10.05990478 62.70532323 10.05990478 64 8 C64.5878125 8.7734375 64.5878125 8.7734375 65.1875 9.5625 C65.785625 10.036875 66.38375 10.51125 67 11 C67.763125 10.835 68.52625 10.67 69.3125 10.5 C72.99120624 9.81558954 74.7175566 11.3587783 78 13 C81.10212291 12.85571521 82.46174169 12.46401578 84.8125 10.4375 C85.204375 9.963125 85.59625 9.48875 86 9 C89.76607955 10.25535985 90.26441793 11.52883585 92 15 C92 15.99 92 16.98 92 18 C92.99 17.67 93.98 17.34 95 17 C95.33 15.35 95.66 13.7 96 12 C96.99 12 97.98 12 99 12 C99.66 11.34 100.32 10.68 101 10 C103.125 10.375 103.125 10.375 105 11 C105.31488229 14.50617179 105.44298098 16.37655509 103.36694336 19.29833984 C102.61550049 20.01199707 101.86405762 20.7256543 101.08984375 21.4609375 C100.26419922 22.26273438 99.43855469 23.06453125 98.58789062 23.890625 C97.71326172 24.71046875 96.83863281 25.5303125 95.9375 26.375 C94.23594977 28.00538273 92.53669801 29.63816791 90.83984375 31.2734375 C90.01468262 32.06588867 89.18952148 32.85833984 88.33935547 33.67480469 C85.58299714 36.41447873 83.04385741 39.29065135 80.52172852 42.24462891 C78.4635298 44.61883856 76.25045507 46.80876743 74 49 C70.42088738 52.54126701 67.01344385 56.15033045 63.73828125 59.97265625 C61.7078395 62.34074449 59.63736733 64.67077065 57.5625 67 C56.88316406 67.763125 56.20382812 68.52625 55.50390625 69.3125 C55.00761719 69.869375 54.51132812 70.42625 54 71 C46.28013285 66.45186121 39.9722849 60.6492028 33.54736328 54.47998047 C32.1793005 53.17149253 30.79217995 51.88299349 29.40234375 50.59765625 C20.55839817 42.18512265 2.48385351 24.50828415 1.83203125 11.69921875 C1.91517578 10.36310547 1.91517578 10.36310547 2 9 C1.34 8.67 0.68 8.34 0 8 C-0.72693904 6.02111039 -1.39816251 4.02045442 -2 2 C-1.34 1.34 -0.68 0.68 0 0 Z " fill="#D9379B" transform="translate(285,696)"/>
<path d="M0 0 C1.35432691 1.35432691 2.68731586 2.7302731 4 4.125 C5.7862684 6.22798038 5.7862684 6.22798038 8 6 C8.66 6.66 9.32 7.32 10 8 C13.96416122 9.32138707 16.02820171 8.14441646 20 7 C23.4375 6.875 23.4375 6.875 26 7 C26.66 5.35 27.32 3.7 28 2 C29.32 2 30.64 2 32 2 C32.495 2.99 32.495 2.99 33 4 C33.66 4.66 34.32 5.32 35 6 C35.99 6 36.98 6 38 6 C38.66 7.32 39.32 8.64 40 10 C40.99 10 41.98 10 43 10 C43.639375 10.20625 44.27875 10.4125 44.9375 10.625 C47.58570244 11.10649135 48.74606103 10.36846295 51 9 C51.99 9.66 52.98 10.32 54 11 C54.66 10.34 55.32 9.68 56 9 C56.66 9 57.32 9 58 9 C58.99 9.99 58.99 9.99 60 11 C62.41666667 11.91666667 62.41666667 11.91666667 65 12 C66.64594139 10.60411246 66.64594139 10.60411246 68 9 C68.99 9 69.98 9 71 9 C71.99 10.98 71.99 10.98 73 13 C73.598125 12.835 74.19625 12.67 74.8125 12.5 C77.98442461 11.77498866 79.90083506 11.96694502 83 13 C84.34262065 12.70630173 85.67696283 12.3721042 87 12 C90.11468205 12 92.93487783 12.47827708 96 13 C96.66 13 97.32 13 98 13 C98.66 12.01 99.32 11.02 100 10 C100.66 9.67 101.32 9.34 102 9 C102.99 10.98 102.99 10.98 104 13 C107.0745356 12.2236068 107.0745356 12.2236068 109 10 C109.495 12.475 109.495 12.475 110 15 C111.0725 14.814375 112.145 14.62875 113.25 14.4375 C116.49958609 14.05838162 118.00468544 14.11249939 121 15 C121.66 14.67 122.32 14.34 123 14 C122.41618857 17.39866637 121.33179326 19.04414316 118.90234375 21.4609375 C118.26490234 22.09773437 117.62746094 22.73453125 116.97070312 23.390625 C116.29974609 24.04546875 115.62878906 24.7003125 114.9375 25.375 C114.29361328 26.02210938 113.64972656 26.66921875 112.98632812 27.3359375 C108.61180789 31.66248194 104.0151707 35.4390207 99 39 C98.34 38.01 97.68 37.02 97 36 C96.34 36 95.68 36 95 36 C94.01 36.99 94.01 36.99 93 38 C92.01 38 91.02 38 90 38 C89.505 38.99 89.505 38.99 89 40 C88.34 40 87.68 40 87 40 C86.505 40.99 86.505 40.99 86 42 C85.01 39.69 84.02 37.38 83 35 C80.58354218 34.83312552 80.58354218 34.83312552 78 35 C77.01 35.99 77.01 35.99 76 37 C75.01 37 74.02 37 73 37 C72.01 37.495 72.01 37.495 71 38 C70.649375 37.505 70.29875 37.01 69.9375 36.5 C67.05793071 34.27065603 64.55608281 34.87522516 61 35 C59.9171875 34.6596875 59.9171875 34.6596875 58.8125 34.3125 C56.8197905 33.75935333 56.8197905 33.75935333 54.75 35.4375 C53.88375 36.2109375 53.88375 36.2109375 53 37 C52.34 36.34 51.68 35.68 51 35 C50.01 35.495 50.01 35.495 49 36 C48.67 35.34 48.34 34.68 48 34 C47.01 34.495 47.01 34.495 46 35 C45.01 34.01 44.02 33.02 43 32 C42.67 32.99 42.34 33.98 42 35 C38.42424104 35 36.94704065 33.91159393 34 32 C33.01 32.99 32.02 33.98 31 35 C30.67 34.67 30.34 34.34 30 34 C29.34 34.66 28.68 35.32 28 36 C26.35 35.34 24.7 34.68 23 34 C23.495 33.01 23.495 33.01 24 32 C23.01 32.66 22.02 33.32 21 34 C20.67 33.34 20.34 32.68 20 32 C19.4225 32.350625 18.845 32.70125 18.25 33.0625 C16 34 16 34 13.8125 33.8125 C13.214375 33.544375 12.61625 33.27625 12 33 C11.67 32.01 11.34 31.02 11 30 C10.67 31.32 10.34 32.64 10 34 C9.34 33.67 8.68 33.34 8 33 C8.33 31.02 8.66 29.04 9 27 C4.52116304 27.44703986 4.52116304 27.44703986 1 30 C1 29.01 1 28.02 1 27 C0.34 27 -0.32 27 -1 27 C-1.99 27 -2.98 27 -4 27 C-4.33 26.01 -4.66 25.02 -5 24 C-5.66 24.66 -6.32 25.32 -7 26 C-6.67958603 28.60280568 -6.67958603 28.60280568 -6 31 C-5.01 31.33 -4.02 31.66 -3 32 C-3.66 33.32 -4.32 34.64 -5 36 C-6.46411505 32.96108388 -7.92023589 29.91840221 -9.375 26.875 C-9.7875 26.0190625 -10.2 25.163125 -10.625 24.28125 C-16.8219246 11.28769841 -16.8219246 11.28769841 -15 4 C-11.38628044 1.59085363 -9.22199845 2 -5 2 C-2.22916194 1.52870015 -2.22916194 1.52870015 0 0 Z M40 5 C41 9 41 9 41 9 Z " fill="#DD3489" transform="translate(291,673)"/>
<path d="M0 0 C2 2 2 2 2 3 C3.33640119 6.18680284 3.98586034 6.99057356 7 9 C6.01 7.35 5.02 5.7 4 4 C4.66 3.34 5.32 2.68 6 2 C6.99 2.99 7.98 3.98 9 5 C9.66 4.34 10.32 3.68 11 3 C11.99 2.67 12.98 2.34 14 2 C14.33 2.99 14.66 3.98 15 5 C16.32 4.34 17.64 3.68 19 3 C19.66 3.66 20.32 4.32 21 5 C20.34 5.33 19.68 5.66 19 6 C18.34 5.67 17.68 5.34 17 5 C18.81193006 7.24324836 18.81193006 7.24324836 21.3828125 7.1953125 C22.74019531 7.16050781 22.74019531 7.16050781 24.125 7.125 C25.49011719 7.09792969 25.49011719 7.09792969 26.8828125 7.0703125 C27.58148438 7.04710937 28.28015625 7.02390625 29 7 C29.495 7.99 29.495 7.99 30 9 C30.639375 8.835 31.27875 8.67 31.9375 8.5 C35.97586652 7.84067485 39.91807258 7.91996221 44 8 C44.90625 10.07421875 44.90625 10.07421875 45 13 C43.17193407 15.61186518 40.84260208 17.66516326 38.5 19.8125 C37.19362241 21.06073358 35.88891573 22.31071838 34.5859375 23.5625 C33.95913086 24.15804687 33.33232422 24.75359375 32.68652344 25.3671875 C29.56615545 28.38818071 26.80308761 31.68975229 24 35 C22.52460697 36.67000815 21.04535971 38.33661824 19.5625 40 C18.88316406 40.763125 18.20382812 41.52625 17.50390625 42.3125 C17.00761719 42.869375 16.51132812 43.42625 16 44 C8.30071319 39.46398606 2.00727639 33.68150358 -4.39990234 27.52832031 C-5.9246703 26.07195055 -7.46914873 24.63993229 -9.01953125 23.2109375 C-9.92058594 22.35757813 -10.82164062 21.50421875 -11.75 20.625 C-12.54921875 19.87476563 -13.3484375 19.12453125 -14.171875 18.3515625 C-16.36893119 15.52543467 -16.8081243 13.54724054 -17 10 C-15.6875 8.3125 -15.6875 8.3125 -14 7 C-13.34 6.01 -12.68 5.02 -12 4 C-11.67 4.33 -11.34 4.66 -11 5 C-10.34 4.01 -9.68 3.02 -9 2 C-8.34 2 -7.68 2 -7 2 C-6.67 3.65 -6.34 5.3 -6 7 C-5.67 7 -5.34 7 -5 7 C-4.67 5.35 -4.34 3.7 -4 2 C-3.34 2.33 -2.68 2.66 -2 3 C-1.34 2.01 -0.68 1.02 0 0 Z " fill="#D63AAA" transform="translate(323,723)"/>
<path d="M0 0 C-0.66 0 -1.32 0 -2 0 C-2 0.99 -2 1.98 -2 3 C-2.99 3 -3.98 3 -5 3 C-5.33 3.66 -5.66 4.32 -6 5 C-6.99 5 -7.98 5 -9 5 C-8 2 -8 2 -5.625 0.25 C-3 -1 -3 -1 0 0 Z " fill="#E53F0D" transform="translate(320,112)"/>
<path d="M0 0 C0.99 0.495 0.99 0.495 2 1 C2 2.32 2 3.64 2 5 C2.99 5.33 3.98 5.66 5 6 C4.34 7.32 3.68 8.64 3 10 C0.96564469 6.27034861 0 4.33094958 0 0 Z " fill="#E03D78" transform="translate(283,699)"/>
<path d="M0 0 C-1.65 1.32 -3.3 2.64 -5 4 C-5.66 3.01 -6.32 2.02 -7 1 C-3.375 -1.125 -3.375 -1.125 0 0 Z " fill="#E4365F" transform="translate(442,665)"/>
</svg>
